<svg xmlns="http://www.w3.org/2000/svg" id="svg8" version="1.1" viewBox="0 0 60.93 81.58"><defs/><defs id="defs2"/><g id="layer1"><g id="g4537" transform="matrix(.26458 0 0 .26458 0 -.05)"><path id="path4526" fill="#f05423" d="M201.53 183.93v-45.32a45.08 45.08 0 10-22.9 0v45.31c-11.43 2.47-19.52 8.51-19.52 15.57v7.19c0 9.25 13.87 16.76 31 16.76 17.13 0 31-7.51 31-16.76v-7.18c0-7.06-8.08-13.1-19.51-15.57M187.1 70.57a15 15 0 112.94 21 15 15 0 01-2.94-21zm14.43 120.85c4.13 1.34 6.78 3.4 6.78 5.7 0 4-8.16 7.32-18.23 7.32s-18.23-3.28-18.23-7.32c0-2.3 2.64-4.36 6.78-5.7v5c1.53 1.75 6.08 3 11.45 3 5.37 0 9.91-1.27 11.45-3zm-122.9 84.32l115.15 60.57 94.57-49.75v-18.37l-89.79 47.22-4.78 2.52-4.78-2.52-104.86-55.15-5.51-2.9v-47.9A9.8 9.8 0 0184 200.6l.16-.08 4.76-2.52 4.78 2.51 100.08 52.64 82.81-43.56L224 182v-23.23l79.39 41.75.15.08a9.8 9.8 0 015.35 8.86v6.33l-5.5 2.9-104.83 55.15-4.78 2.52-4.78-2.52-89.79-47.22V245l94.57 49.74 100.08-52.64 15.07-7.92v58.72a9.78 9.78 0 01-5.35 8.86l-.15.08L198.56 357l-.12.06a9.76 9.76 0 01-9.32 0L189 357 84 301.75a9.77 9.77 0 01-5.35-8.86z" transform="translate(-78.63 -49.76)"/></g></g></svg>