<?xml version="1.0" encoding="utf-8"?>
<!-- Generator: Adobe Illustrator 25.0.1, SVG Export Plug-In . SVG Version: 6.00 Build 0)  -->
<svg version="1.1" id="Layer_1" xmlns="http://www.w3.org/2000/svg" xmlns:xlink="http://www.w3.org/1999/xlink" x="0px" y="0px"
	 viewBox="0 0 763.4 439.91" style="enable-background:new 0 0 763.4 439.91;" xml:space="preserve">
<style type="text/css">
	.st0{fill:url(#SVGID_1_);}
	.st1{opacity:0.2;}
	.st2{fill:none;}
	.st3{fill:url(#SVGID_2_);}
	.st4{fill:url(#SVGID_3_);}
	.st5{fill:url(#SVGID_4_);}
	.st6{fill:url(#SVGID_5_);}
	.st7{fill:url(#SVGID_6_);}
	.st8{fill:url(#SVGID_7_);}
	.st9{fill:url(#SVGID_8_);}
	.st10{fill:url(#SVGID_9_);}
	.st11{fill:url(#SVGID_10_);}
	.st12{fill:url(#SVGID_11_);}
	.st13{fill:url(#SVGID_12_);}
</style>
<g>
	<linearGradient id="SVGID_1_" gradientUnits="userSpaceOnUse" x1="452.2279" y1="221.6279" x2="684.5657" y2="221.6279">
		<stop  offset="4.587160e-03" style="stop-color:#2E2E2E"/>
		<stop  offset="1" style="stop-color:#2E2E2E"/>
	</linearGradient>
	<path class="st0" d="M466.26,182.28l-7.66,8.68l-6.37,7.26l36.25,52.81l5.11,7.45h190.98v-76.2H466.26z M531.56,313.75l51.3,74.72
		l5.13,7.45h99.08v-82.16H531.56z M585.06,47.34l-7.65,8.68l-64.7,73.48h171.85V47.34H585.06z"/>
	<g>
		<polygon class="st1" points="499.32,243.58 509.53,258.48 493.59,258.48 488.48,251.03 452.23,198.23 458.6,190.97 466.25,182.28 
			483.78,182.28 468.86,199.23 		"/>
		<polygon class="st1" points="602.59,47.34 530.24,129.51 512.72,129.51 577.41,56.03 585.07,47.34 		"/>
		<polygon class="st1" points="603.93,395.92 587.99,395.92 582.86,388.47 531.55,313.75 547.5,313.75 		"/>
	</g>
	<polygon class="st2" points="455.89,395.75 333,395.75 333,305.77 368.37,266.44 371.54,271.14 400.37,313.76 	"/>
	<linearGradient id="SVGID_2_" gradientUnits="userSpaceOnUse" x1="192.76" y1="221.6333" x2="572.0138" y2="221.6333">
		<stop  offset="0" style="stop-color:#FF5E14"/>
		<stop  offset="0.9954" style="stop-color:#DB481F"/>
	</linearGradient>
	<path class="st3" d="M572.01,395.92l-56.43-82.16l-37.93-55.28l-42.08-61.26l13.14-14.95l46.48-52.77l72.35-82.16H452.99
		l-69.7,82.16l-44.76,52.77l-5.51,6.52V47.51h-66.53c5.22,7.04,8.32,15.75,8.32,25.17c0,13.32-6.45,26.08-17.13,34.02
		c-13.2,9.82-30.14,5.5-44.4,12.03c-12.51,5.72-20.49,19.37-20.49,32.93c0,17.35,13.1,33.9,30.62,36.07
		c4.47,0.55,9.02,0.64,13.38,1.76c6.04,1.55,11.54,5.14,15.4,10.04c5.65,7.16,7.57,17.12,4.94,25.86c-2.62,8.74-9.73,16-18.43,18.77
		c-4.81,1.53-9.92,1.73-14.92,2.4c-17.71,2.37-30.99,18.24-30.99,36.06c0,12.29,6.32,23.99,16.6,30.74
		c13.61,8.94,31.12,5.15,45.16,12.39c13.43,6.93,21.81,22.16,21.81,37.04c0,13.3-6.17,25.19-15.79,32.96H333v-89.98l35.36-39.33
		l3.18,4.69l28.83,42.62l55.52,81.99h97.59v0.17H572.01z"/>
	<linearGradient id="SVGID_3_" gradientUnits="userSpaceOnUse" x1="136.6072" y1="300.0116" x2="172.4038" y2="300.0116">
		<stop  offset="0" style="stop-color:#FF5E14"/>
		<stop  offset="0.9954" style="stop-color:#DB481F"/>
	</linearGradient>
	<path class="st4" d="M136.61,300.01c0,9.89,8.01,17.9,17.9,17.9c9.88,0,17.9-8.01,17.9-17.9c0-9.89-8.02-17.9-17.9-17.9
		C144.62,282.11,136.61,290.12,136.61,300.01z"/>
	<linearGradient id="SVGID_4_" gradientUnits="userSpaceOnUse" x1="125.2691" y1="218.7613" x2="198.8055" y2="218.7613">
		<stop  offset="4.587160e-03" style="stop-color:#2E2E2E"/>
		<stop  offset="1" style="stop-color:#2E2E2E"/>
	</linearGradient>
	<path class="st5" d="M162.04,255.53c20.31,0,36.77-16.46,36.77-36.76c0-20.31-16.46-36.77-36.77-36.77
		c-20.31,0-36.77,16.46-36.77,36.77C125.27,239.06,141.73,255.53,162.04,255.53z"/>
	<linearGradient id="SVGID_5_" gradientUnits="userSpaceOnUse" x1="165.4749" y1="362.7928" x2="272.9968" y2="362.7928">
		<stop  offset="4.587160e-03" style="stop-color:#2E2E2E"/>
		<stop  offset="1" style="stop-color:#2E2E2E"/>
	</linearGradient>
	<path class="st6" d="M258.22,347.5c-5.08-8.05-14.04-13.41-24.27-13.41c-15.85,0-28.7,12.85-28.7,28.7
		c0,12.62,8.15,23.31,19.46,27.16c2.9,0.99,6,1.55,9.24,1.55c15.86,0,28.71-12.85,28.71-28.71
		C262.66,357.16,261.01,351.93,258.22,347.5z"/>
	<linearGradient id="SVGID_6_" gradientUnits="userSpaceOnUse" x1="129.3543" y1="123.1015" x2="165.1612" y2="123.1015">
		<stop  offset="4.587160e-03" style="stop-color:#2E2E2E"/>
		<stop  offset="1" style="stop-color:#2E2E2E"/>
	</linearGradient>
	<path class="st7" d="M147.26,141c9.89,0,17.9-8.01,17.9-17.9c0-9.89-8.01-17.9-17.9-17.9c-9.89,0-17.9,8.01-17.9,17.9
		C129.35,132.99,137.37,141,147.26,141z"/>
	<linearGradient id="SVGID_7_" gradientUnits="userSpaceOnUse" x1="76.3402" y1="203.2275" x2="112.1472" y2="203.2275">
		<stop  offset="4.587160e-03" style="stop-color:#2E2E2E"/>
		<stop  offset="1" style="stop-color:#2E2E2E"/>
	</linearGradient>
	<path class="st8" d="M112.15,203.22c0-9.88-8.01-17.9-17.9-17.9c-9.89,0-17.9,8.01-17.9,17.9c0,9.89,8.01,17.9,17.9,17.9
		C104.13,221.13,112.15,213.12,112.15,203.22z"/>
	<linearGradient id="SVGID_8_" gradientUnits="userSpaceOnUse" x1="112.1198" y1="162.5232" x2="129.9736" y2="162.5232">
		<stop  offset="0" style="stop-color:#FF5E14"/>
		<stop  offset="0.9954" style="stop-color:#DB481F"/>
	</linearGradient>
	<path class="st9" d="M129.97,162.52c0-4.93-4-8.92-8.93-8.92c-4.93,0-8.93,4-8.93,8.92c0,4.93,4,8.93,8.93,8.93
		C125.98,171.45,129.97,167.45,129.97,162.52z"/>
	<linearGradient id="SVGID_9_" gradientUnits="userSpaceOnUse" x1="134.3985" y1="364.377" x2="152.2522" y2="364.377">
		<stop  offset="4.587160e-03" style="stop-color:#2E2E2E"/>
		<stop  offset="1" style="stop-color:#2E2E2E"/>
	</linearGradient>
	<path class="st10" d="M143.32,373.3c4.93,0,8.93-4,8.93-8.93c0-4.93-4-8.92-8.93-8.92c-4.93,0-8.93,4-8.93,8.92
		C134.4,369.31,138.39,373.3,143.32,373.3z"/>
	<linearGradient id="SVGID_10_" gradientUnits="userSpaceOnUse" x1="97.9432" y1="293.4918" x2="115.797" y2="293.4918">
		<stop  offset="0" style="stop-color:#FF5E14"/>
		<stop  offset="0.9954" style="stop-color:#DB481F"/>
	</linearGradient>
	<path class="st11" d="M106.87,284.57c-4.93,0-8.93,4-8.93,8.92c0,4.93,3.99,8.93,8.93,8.93c4.93,0,8.93-4,8.93-8.93
		C115.8,288.56,111.8,284.57,106.87,284.57z"/>
	<linearGradient id="SVGID_11_" gradientUnits="userSpaceOnUse" x1="218.7849" y1="216.5307" x2="236.6387" y2="216.5307">
		<stop  offset="4.587160e-03" style="stop-color:#2E2E2E"/>
		<stop  offset="1" style="stop-color:#2E2E2E"/>
	</linearGradient>
	<path class="st12" d="M236.64,216.53c0-4.93-3.99-8.92-8.93-8.92c-4.93,0-8.93,4-8.93,8.92c0,4.93,4,8.93,8.93,8.93
		C232.64,225.46,236.64,221.46,236.64,216.53z"/>
	<linearGradient id="SVGID_12_" gradientUnits="userSpaceOnUse" x1="119.0888" y1="72.6936" x2="276.2317" y2="72.6936">
		<stop  offset="0" style="stop-color:#FF5E14"/>
		<stop  offset="0.9954" style="stop-color:#DB481F"/>
	</linearGradient>
	<path class="st13" d="M246.2,47.51c-4.09-2.24-8.79-3.52-13.78-3.52c-15.85,0-28.7,12.85-28.7,28.7c0,15.85,12.85,28.71,28.7,28.71
		c11.36,0,21.14-6.61,25.8-16.17c1.85-3.79,2.91-8.03,2.91-12.53C261.12,61.83,255.09,52.39,246.2,47.51z"/>
</g>
</svg>
