<svg xmlns="http://www.w3.org/2000/svg" xmlns:xlink="http://www.w3.org/1999/xlink" width="411" height="380" viewBox="0 0 411 380">
    <defs>
        <linearGradient id="tg3rhqdx8a" x1="50%" x2="50%" y1="0%" y2="100%">
            <stop offset="0%" stop-color="#A4EDFF"/>
            <stop offset="9.95%" stop-color="#7BCFE4"/>
            <stop offset="25.985%" stop-color="#4DB4CE"/>
            <stop offset="81.015%" stop-color="#3BA1BB"/>
            <stop offset="100%" stop-color="#257D94"/>
        </linearGradient>
        <linearGradient id="63bk40o5xf" x1="40.031%" x2="71.141%" y1="91.607%" y2="17.475%">
            <stop offset="0%" stop-color="#A65F00"/>
            <stop offset="31.019%" stop-color="#DD7E00"/>
            <stop offset="100%" stop-color="#FFC478"/>
        </linearGradient>
        <linearGradient id="cau319ejoh" x1="2.826%" x2="100%" y1="46.923%" y2="50%">
            <stop offset="0%" stop-color="#DBD6D6"/>
            <stop offset="100%" stop-color="#FFF"/>
        </linearGradient>
        <linearGradient id="wp0v7b86oj" x1="2.826%" x2="100%" y1="46.705%" y2="50%">
            <stop offset="0%" stop-color="#DBD6D6"/>
            <stop offset="100%" stop-color="#FFF"/>
        </linearGradient>
        <linearGradient id="kbx35rnqcm" x1="50%" x2="28.793%" y1="93.236%" y2="17.873%">
            <stop offset="0%" stop-color="#A65F00"/>
            <stop offset="0%" stop-color="#AF6400"/>
            <stop offset="31.019%" stop-color="#DD7E00"/>
            <stop offset="100%" stop-color="#FFC478"/>
        </linearGradient>
        <linearGradient id="p8qxaegc0o" x1="97.084%" x2="2.826%" y1="48.894%" y2="50%">
            <stop offset="0%" stop-color="#DBD6D6"/>
            <stop offset="100%" stop-color="#FFF"/>
        </linearGradient>
        <linearGradient id="deu4mg3h9q" x1="97.084%" x2="2.826%" y1="48.813%" y2="50%">
            <stop offset="0%" stop-color="#DBD6D6"/>
            <stop offset="100%" stop-color="#FFF"/>
        </linearGradient>
        <linearGradient id="y4mvtv5xdr" x1="42.747%" x2="62.355%" y1="13.879%" y2="80.836%">
            <stop offset="0%" stop-color="#EBF29E"/>
            <stop offset="100%" stop-color="#D2E065"/>
        </linearGradient>
        <linearGradient id="rd6syrk3ds" x1="43.711%" x2="60.712%" y1="13.879%" y2="80.836%">
            <stop offset="0%" stop-color="#EBF29E"/>
            <stop offset="100%" stop-color="#D2E065"/>
        </linearGradient>
        <linearGradient id="2tudhv204t" x1="50%" x2="50%" y1="1.175%" y2="100%">
            <stop offset="0%" stop-color="#C73867"/>
            <stop offset="100%" stop-color="#901550"/>
        </linearGradient>
        <linearGradient id="1s3fuzk18u" x1="50%" x2="50%" y1="0%" y2="100%">
            <stop offset="0%" stop-color="#929393"/>
            <stop offset="100%" stop-color="#505151"/>
        </linearGradient>
        <linearGradient id="l7k7mpdd4v" x1="50%" x2="50%" y1="0%" y2="100%">
            <stop offset="1.175%" stop-color="#C73867"/>
            <stop offset="100%" stop-color="#901550"/>
        </linearGradient>
        <linearGradient id="2wlsm6pgrw" x1="50%" x2="50%" y1="0%" y2="100%">
            <stop offset="0%" stop-color="#929393"/>
            <stop offset="100%" stop-color="#505151"/>
        </linearGradient>
        <linearGradient id="wp4q4o7v0x" x1="50%" x2="50%" y1="0%" y2="100%">
            <stop offset="1.175%" stop-color="#C73867"/>
            <stop offset="100%" stop-color="#901550"/>
        </linearGradient>
        <linearGradient id="1m0n7tdv9B" x1="51.149%" x2="50%" y1="7.614%" y2="92.386%">
            <stop offset="0%" stop-color="#FFE3C3"/>
            <stop offset="33.588%" stop-color="#FFC06E"/>
            <stop offset="100%" stop-color="#E39227"/>
        </linearGradient>
        <linearGradient id="wb8zytp2lD" x1="50%" x2="50%" y1="0%" y2="100%">
            <stop offset="0%" stop-color="#FBEBCF"/>
            <stop offset="100%" stop-color="#F6D2A2"/>
        </linearGradient>
        <filter id="56bxflnykc" width="102.4%" height="101.7%" x="-1.2%" y="-.9%" filterUnits="objectBoundingBox">
            <feGaussianBlur in="SourceAlpha" result="shadowBlurInner1" stdDeviation="1"/>
            <feOffset dy="2" in="shadowBlurInner1" result="shadowOffsetInner1"/>
            <feComposite in="shadowOffsetInner1" in2="SourceAlpha" k2="-1" k3="1" operator="arithmetic" result="shadowInnerInner1"/>
            <feColorMatrix in="shadowInnerInner1" values="0 0 0 0 1 0 0 0 0 1 0 0 0 0 1 0 0 0 0.280157343 0"/>
        </filter>
        <filter id="bjcog25jwe" width="129.2%" height="120.7%" x="-14.6%" y="-8.8%" filterUnits="objectBoundingBox">
            <feOffset dy="2" in="SourceAlpha" result="shadowOffsetOuter1"/>
            <feGaussianBlur in="shadowOffsetOuter1" result="shadowBlurOuter1" stdDeviation="4"/>
            <feColorMatrix in="shadowBlurOuter1" result="shadowMatrixOuter1" values="0 0 0 0 0 0 0 0 0 0 0 0 0 0 0 0 0 0 0.438100962 0"/>
            <feOffset dy="2" in="SourceAlpha" result="shadowOffsetOuter2"/>
            <feColorMatrix in="shadowOffsetOuter2" result="shadowMatrixOuter2" values="0 0 0 0 0 0 0 0 0 0 0 0 0 0 0 0 0 0 0.0702032343 0"/>
            <feMerge>
                <feMergeNode in="shadowMatrixOuter1"/>
                <feMergeNode in="shadowMatrixOuter2"/>
            </feMerge>
        </filter>
        <filter id="unm8wy6g4g" width="120.2%" height="114.3%" x="-10.1%" y="-5.6%" filterUnits="objectBoundingBox">
            <feGaussianBlur in="SourceAlpha" result="shadowBlurInner1" stdDeviation="1"/>
            <feOffset in="shadowBlurInner1" result="shadowOffsetInner1"/>
            <feComposite in="shadowOffsetInner1" in2="SourceAlpha" k2="-1" k3="1" operator="arithmetic" result="shadowInnerInner1"/>
            <feColorMatrix in="shadowInnerInner1" values="0 0 0 0 1 0 0 0 0 1 0 0 0 0 1 0 0 0 0.5 0"/>
        </filter>
        <filter id="orfeu5xtfl" width="129%" height="120.7%" x="-14.5%" y="-8.8%" filterUnits="objectBoundingBox">
            <feOffset dy="2" in="SourceAlpha" result="shadowOffsetOuter1"/>
            <feGaussianBlur in="shadowOffsetOuter1" result="shadowBlurOuter1" stdDeviation="4"/>
            <feColorMatrix in="shadowBlurOuter1" result="shadowMatrixOuter1" values="0 0 0 0 0 0 0 0 0 0 0 0 0 0 0 0 0 0 0.438100962 0"/>
            <feOffset dy="2" in="SourceAlpha" result="shadowOffsetOuter2"/>
            <feColorMatrix in="shadowOffsetOuter2" result="shadowMatrixOuter2" values="0 0 0 0 0 0 0 0 0 0 0 0 0 0 0 0 0 0 0.0702032343 0"/>
            <feMerge>
                <feMergeNode in="shadowMatrixOuter1"/>
                <feMergeNode in="shadowMatrixOuter2"/>
            </feMerge>
        </filter>
        <filter id="lf63zgoudn" width="120%" height="114.3%" x="-10%" y="-5.6%" filterUnits="objectBoundingBox">
            <feGaussianBlur in="SourceAlpha" result="shadowBlurInner1" stdDeviation="1"/>
            <feOffset in="shadowBlurInner1" result="shadowOffsetInner1"/>
            <feComposite in="shadowOffsetInner1" in2="SourceAlpha" k2="-1" k3="1" operator="arithmetic" result="shadowInnerInner1"/>
            <feColorMatrix in="shadowInnerInner1" values="0 0 0 0 1 0 0 0 0 1 0 0 0 0 1 0 0 0 0.5 0"/>
        </filter>
        <filter id="r68q67hn6y" width="105.1%" height="105.5%" x="-2.5%" y="-2.8%" filterUnits="objectBoundingBox">
            <feGaussianBlur in="SourceGraphic" stdDeviation="3.301"/>
        </filter>
        <filter id="k8v5qefdtz" width="104.3%" height="104.7%" x="-2.2%" y="-1.8%" filterUnits="objectBoundingBox">
            <feOffset dy="2" in="SourceAlpha" result="shadowOffsetOuter1"/>
            <feGaussianBlur in="shadowOffsetOuter1" result="shadowBlurOuter1" stdDeviation="2.5"/>
            <feColorMatrix in="shadowBlurOuter1" values="0 0 0 0 0 0 0 0 0 0 0 0 0 0 0 0 0 0 0.357599432 0"/>
        </filter>
        <filter id="vq0fzmrulC" width="103.1%" height="103.3%" x="-1.5%" y="-1.1%" filterUnits="objectBoundingBox">
            <feGaussianBlur in="SourceAlpha" result="shadowBlurInner1" stdDeviation="1"/>
            <feOffset in="shadowBlurInner1" result="shadowOffsetInner1"/>
            <feComposite in="shadowOffsetInner1" in2="SourceAlpha" k2="-1" k3="1" operator="arithmetic" result="shadowInnerInner1"/>
            <feColorMatrix in="shadowInnerInner1" values="0 0 0 0 1 0 0 0 0 1 0 0 0 0 1 0 0 0 0.505709135 0"/>
        </filter>
        <path id="n1bndo4kib" d="M267.47 143.917C252.425 114.341 223.538 110 192.662 110c-33.248 2.601-64.07 10.324-75.55 44.324-11 32.795-.617 66.41-1.947 99.986-.782 19.252-4.32 42.695-1.674 63.891C137.714 333.141 166.217 342 196.818 342c29.27 0 56.607-7.997 80.09-21.772 5.17-23.4 2.605-49.171 1.207-72.271-1.934-35.136 2.852-70.848-10.644-104.04z"/>
        <path id="wiaoj4ackd" d="M2.516 0s1.941 21.08 1.86 30.116c-.151 9.063 8.532 3.377 8.997 17.594.465 14.3-5.305 11.51-8.3 18.523C2.05 73.205 0 105.987 0 105.987s3.062 6.165 12.758 11.592c9.695 5.537 25.229 8.6 38.685 7.984 13.455-.615 23.068-3.486 25.434-5.072 2.407-1.586 6.359-6.63 7.904-10.499 1.545-3.91 4.608-35.967 4.375-54.326-.232-18.373-3.213-35.27-3.213-35.27L2.516 0z"/>
        <path id="cd6eud709k" d="M82.238 0s-.231 21.08-.15 30.116c.15 9.063-5.279 3.377-5.742 17.594-.462 14.3 5.28 11.51 8.328 18.523 3.048 6.972 5.13 39.754 5.13 39.754s-3.13 6.165-12.845 11.592c-9.716 5.537-25.377 8.6-38.916 7.984-13.538-.615-23.254-3.486-25.648-5.072-2.463-1.627-6.41-6.63-7.947-10.499-1.537-3.91-4.667-35.967-4.436-54.326.232-18.36 3.28-35.27 3.28-35.27L82.238 0z"/>
        <path id="ja88j315iA" d="M276.908 353.843c-17.977 5.64-34.873 8.673-52.234 3.499-7.519-2.264-13.985-6.422-17.28-15.328 24.019.466 48.243-6.257 69.514 11.83zm-92.795-12.927c-1.244 5.558-4.538 9.565-9.063 11.362-6.78 2.759-14.026 5.023-21.271 6.107-11.019 1.55-27.369-1.44-37.99-5.805 6.63-7.588 15.037-11.087 24.182-11.513 14.574-.7 29.174-.15 44.142-.15zm133.985-10.882c-20.89 15.246-54.792 20.035-64.867 1.633 4.101-.753 8.179-1.757 12.247-2.798l2.568-.66c16.474-4.243 32.84-8.36 50.052 1.825zm-220.136-6.82c13.561 1.798 26.972 4.872 41.545 7.589-5.933 8.522-13.097 11.513-21.12 12.213-16.282 1.4-30.61-4.474-44.84-12.913 7.56-5.873 15.926-7.973 24.415-6.888zm147.874-25.207c3.376 8.906 2.323 16.535-3.213 23.342-7.943 9.756-19.098 14.312-30.813 17.934-1.327.357-2.638.632-4.265.975-.698-6.107 1.627-11.362 5.235-15.561 4.457-5.256 9.61-10.113 14.955-14.395 5.538-4.473 11.703-8.055 18.1-12.295zm-99.986-.384c24.155 12.61 39.644 27.622 38.209 41.386-11.552-2.882-21.969-7.04-30.813-14.628-8.722-7.506-11.388-17.345-7.396-26.758zm128.379-13.832c6.315 5.557 7.792 15.478 3.445 24.274-5.414 10.607-14.56 17.18-25.605 23.218-2.857-16.707 4.85-27.636 13.714-37.859l.702-.805c.234-.269.47-.536.705-.804l.709-.801.71-.8.71-.8c.12-.133.238-.266.356-.4l.71-.8.708-.8c1.06-1.2 2.11-2.405 3.136-3.623zm-156.855-.714c1.162 1.361 2.353 2.707 3.552 4.048l.72.804 1.442 1.606.72.803c9.823 10.985 19.056 22.2 16.163 39.45-22.05-4.9-35.146-31.85-22.597-46.711zm233.081 16c-18.482 19.952-45.14 28.09-59.644 14.546 14.655-13.818 45.468-21.435 59.644-14.546zM65.44 295.715c5.072 1.318 10.075 3.225 14.805 5.406 7.095 3.225 14.026 6.889 21.504 10.54-8.257 7.588-17.471 8.52-27.054 6.421-13.233-2.757-23.773-10.429-33.738-20.226 8.257-4.09 16.39-4.199 24.483-2.14zm231.496-33.441c15.461 11.087 11.975 33.798-7.861 49.95-8.76-17.688-1.297-32.053 6.179-46.649l.482-.942c.402-.785.802-1.571 1.2-2.36zm-202.5-1.18c13.014 19.719 15.925 37.612 8.024 49.208-18.988-12.913-23.062-36.762-8.024-49.208zm278.767.563c-8.872 18.044-33.37 37.53-52.932 25.523 11.934-17.084 38.523-29.929 52.932-25.523zm-301.365 24.11c-20.04 12.295-44.442-7.507-53.246-25.36 15.037-5.337 33.766 6.258 53.246 25.36zm241.105-49.126c17.321 6.298 19.96 31.589 5.155 49.4-11.656-12.91-10.319-26.943-7.113-41.221l.232-1.02c.117-.51.237-1.021.358-1.532l.244-1.022c.286-1.193.58-2.387.873-3.581l.251-1.024zm-234.94-1.222c7.628 18.635 7.095 39.37-4.538 48.975-12.632-16.343-14.108-39.904 4.538-48.975zm308.911-14.765c-4.1 23.96-28.051 42.443-45.454 35.13 9.542-20.584 30.267-36.653 45.454-35.13zM4.54 218.733c21.62 1.038 31.675 15.913 42.425 30.143l.726.958c1.09 1.436 2.191 2.861 3.314 4.262-17.142 8.013-39.616-9.057-46.465-35.363zm317.864-10.127c19.098 2.402 25.769 25.578 16.815 46.71-15.921-11.26-16.876-27.225-16.832-43.575l.004-1.045.003-.522.007-1.045.003-.523zm-252.998-1.73c.15 17.936.082 35.13-16.473 46.945-8.257-14.97-5.96-41.962 16.473-46.944zm321.583-29.2c.465 18.237-13.096 47.726-36.308 43.527 4.839-21.983 21.27-41.702 36.308-43.526zm-38.441 43.595c-18.17-7.494-22.86-22.833-26.39-38.985l-.223-1.032c-.149-.688-.295-1.378-.441-2.069 17.252-2.757 29.884 16.646 27.054 42.086zM0 176.496c15.653 1.317 27.942 16.535 37.361 43.678-10.499 1.4-18.632-2.759-25.03-10.47C4.607 200.154 1.736 188.79 0 176.496zm65.604 1.057c.342 17.962-11.62 37.38-26.356 42.086-2.871-24.577 8.257-42.238 26.356-42.086zm320.08-43.02c4.922 24.193-5.277 49.716-26.74 50.567 4.607-19.403 5.62-39.987 26.74-50.566zm-28.052 50.485c-14.258-1.249-27.668-13.53-35.146-35.83 16.965-4.542 33.437 12.145 35.146 35.83zM69.555 147.707c-6.548 20.734-20.888 35.197-35.146 35.828 0-21.9 16.855-39.287 35.146-35.828zm-64.128-14.82c17.891 8.99 21.81 24.449 25.12 40.209l.242 1.154.36 1.73c.522 2.502 1.048 5 1.633 7.473-9.966.384-19.03-6.106-23.595-16.686-4.58-10.539-4.771-21.544-3.76-33.88zm349.253 16.315c-20.133.527-30.928-12.503-41.4-26.148l-1.307-1.708c15.188-8.796 37.21 5.64 42.707 27.856zm16.199-55.369c10.307 22.258 6.001 50.43-14.955 54.697.044-1.57.057-3.146.055-4.723l-.004-1.183c-.102-17.744-1.767-35.552 14.904-48.79zm-290.784 26.03c-.773 1.019-1.545 2.034-2.32 3.042l-.665.861c-10.094 13.035-20.773 24.543-39.557 24.256 5.153-22.71 25.919-36.09 42.542-28.158zM20.11 92.79c13.247 7.822 18.25 26.058 15.38 54.217-8.558-.851-16.747-9.455-18.948-19.952-2.392-11.664-.383-22.875 3.568-34.265zM343.47 113.8c-11.647 5.722-32.152-2.1-48.16-18.594 16.199-10.113 37.894-1.592 48.16 18.594zM96.145 93.874c-11.975 15.095-34.149 23.932-48.092 19.019 11.319-20.734 33.055-29.214 48.092-19.02zm250.702-37.338c16.815 22.6 16.05 49.317-1.941 57.057-.574-2.892-1.27-5.778-1.989-8.658l-.288-1.152-.577-2.302-.43-1.724c-3.587-14.558-6.193-28.965 5.225-43.221zm-301.98-1.359c12.03 14.996 8.61 30.167 4.758 45.577l-.29 1.157c-.869 3.47-1.74 6.952-2.444 10.447C36.268 107.61 31.046 96.564 33.014 83.5c1.586-10.196 5.537-19.335 11.852-28.323zm280.408 27.5c-18.902 8.152-34.592.493-50.441-7.5l-1.012-.51-.506-.255-1.013-.51-.507-.254c13.562-13.366 37.115-9.441 53.479 9.028zm-205.26-10.278l-1.524.764-1.014.511c-16.053 8.082-31.838 15.993-50.942 7.754 16.39-18.47 39.986-22.408 53.48-9.03zm193.558-47.164c10.5 9.84 19.098 20.35 21.435 34.663 1.313 8.123-1.708 15.794-8.092 21.2-14.355-15.492-21.066-42.648-13.343-55.863zm-235.186-1.33c4.375 7.19 4.539 14.394 2.94 21.708-1.942 9.139-10.076 26.223-16.009 34.196-7.71-5.091-10.772-15.644-7.245-26.608 3.623-11.76 11.06-20.816 20.314-29.297zm220.217 31.231c-15.374 10.718-30.965 8.011-46.632 4.31l-1.133-.269c-1.321-.316-2.643-.636-3.966-.954l-1.134-.272-.567-.135-1.134-.268-1.134-.264-.567-.13c8.42-15.932 35.543-16.989 56.267-2.018zm-148.83.659c-1.147.268-2.292.544-3.436.824l-1.716.42-1.143.281-2.283.56-1.14.276c-.76.183-1.52.363-2.28.54l-1.138.262c-14.602 3.322-29.019 4.964-43.282-4.947 16.118-12.062 44.443-17.002 56.418 1.784zM269.39.768c13.178 6.958 23.595 14.628 30.608 26.141 5.618 9.222 5.304 19.02-.93 27.074-1.79-2.216-3.696-4.359-5.646-6.473l-.839-.905c-.42-.451-.842-.902-1.265-1.352l-.847-.9c-.988-1.05-1.978-2.098-2.961-3.15l-.84-.905c-9.782-10.563-18.582-21.778-17.28-39.53zM121.448 0c2.68 6.189 1.627 12.062-1.08 17.002-4.074 7.355-9.063 14.23-14.176 20.885-4.129 5.187-8.927 9.702-13.848 15.026-5.851-9.03-5.851-17.427-1.313-25.757C97.811 14.628 108.94 6.738 121.448 0zm161.27 42.265c-16.938 5.406-46.848-9.14-57.935-28.474 21.271-3.033 47.86 10.196 57.935 28.474zM167.586 11.609c-7.423 15.053-33.547 33.03-57.771 29.091 9.57-18.442 35.53-31.465 57.77-29.09z"/>
    </defs>
    <g fill="none" fill-rule="evenodd">
        <g>
            <g>
                <g>
                    <path fill="#8C5406" fill-rule="nonzero" d="M108 200.68S129.161 182 191.882 182c57.509 0 73.718 13.165 90.118 18.68L196.33 243 108 200.68z" transform="translate(-924 -159) translate(0 64) translate(934 103)"/>
                    <path fill="#F6D2A2" fill-rule="nonzero" d="M98.871 257.022c.38 8.178 8.304 4.411 11.968 1.793 3.46-2.465 4.424-.393 4.736-5.196.23-3.136.543-6.315.38-9.522-5.197-.476-10.774.798-15.007 3.935-2.307 1.723-6.337 6.917-2.077 8.99z" transform="translate(-924 -159) translate(0 64) translate(934 103)"/>
                    <path fill="#C6B199" fill-rule="nonzero" d="M99 257c1.085-.531 2.247-.891 3-2l-3 2z" transform="translate(-924 -159) translate(0 64) translate(934 103)"/>
                    <path fill="#F6D2A2" fill-rule="nonzero" d="M293.138 256.022c-.38 8.178-8.308 4.411-11.975 1.793-3.461-2.465-4.425-.393-4.738-5.196-.23-3.136-.543-6.315-.38-9.522 5.2-.476 10.78.798 15.016 3.935 2.227 1.638 6.354 6.917 2.077 8.99z" transform="translate(-924 -159) translate(0 64) translate(934 103)"/>
                    <path fill="#E3E0E4" fill-rule="nonzero" d="M293 256c-1.085-.531-2.247-.89-3-2l3 2z" transform="translate(-924 -159) translate(0 64) translate(934 103)"/>
                    <g transform="translate(-924 -159) translate(0 64) translate(934 103)">
                        <use fill="url(#tg3rhqdx8a)" xlink:href="#n1bndo4kib"/>
                        <use fill="#000" filter="url(#56bxflnykc)" xlink:href="#n1bndo4kib"/>
                    </g>
                    <path fill="#FFF" fill-rule="nonzero" d="M204.541 190.19c0 4.259.924 9.08.15 13.662-1.073 2.066-3.124 2.277-4.89 3.148-2.458-.394-4.577-2.066-5.581-4.497-.612-5.215.23-10.275.38-15.503l9.941 3.19zM182.988 189.908c-3.251 7.86 1.836 23.582 10.634 11.939-.607-4.994.23-9.84.378-14.847l-11.012 2.908z" transform="translate(-924 -159) translate(0 64) translate(934 103)"/>
                    <g transform="translate(-924 -159) translate(0 64) translate(934 103) translate(105 201)">
                        <mask id="6ishbr9cji" fill="#fff">
                            <use xlink:href="#wiaoj4ackd"/>
                        </mask>
                        <g>
                            <use fill="#000" filter="url(#bjcog25jwe)" xlink:href="#wiaoj4ackd"/>
                            <use fill="url(#63bk40o5xf)" xlink:href="#wiaoj4ackd"/>
                            <use fill="#000" filter="url(#unm8wy6g4g)" xlink:href="#wiaoj4ackd"/>
                        </g>
                        <path fill="url(#cau319ejoh)" fill-rule="nonzero" d="M87.72 89.473c-39.573 4.456-85.546-7.752-85.546-7.752s.697-12.358 3.61-16.746c41.2 12.755 82.716 8.64 82.716 8.64.616 5.783.219 10.403-.78 15.858z" mask="url(#6ishbr9cji)"/>
                        <path fill="url(#wp0v7b86oj)" fill-rule="nonzero" d="M82.716 113.82C43.143 118.277 0 105.522 0 105.522s-.15-11.893 1.476-17.13c41.201 12.755 85.164 9.611 85.164 9.611-.396 6.316-1.285 12.44-3.924 15.817z" mask="url(#6ishbr9cji)"/>
                    </g>
                    <g transform="translate(-924 -159) translate(0 64) translate(934 103) translate(200 201)">
                        <mask id="tchd348sdp" fill="#fff">
                            <use xlink:href="#cd6eud709k"/>
                        </mask>
                        <g>
                            <use fill="#000" filter="url(#orfeu5xtfl)" xlink:href="#cd6eud709k"/>
                            <use fill="url(#kbx35rnqcm)" xlink:href="#cd6eud709k"/>
                            <use fill="#000" filter="url(#lf63zgoudn)" xlink:href="#cd6eud709k"/>
                        </g>
                        <path fill="url(#p8qxaegc0o)" fill-rule="nonzero" d="M1.51 89.473c39.921 4.456 86.198-7.752 86.198-7.752s-.694-12.358-3.66-16.746C42.506 77.73.652 73.655.652 73.655.04 79.399.434 84.019 1.51 89.474z" mask="url(#tchd348sdp)"/>
                        <path fill="url(#deu4mg3h9q)" fill-rule="nonzero" d="M6.448 113.82c39.923 4.457 83.397-8.298 83.397-8.298s.15-11.893-1.47-17.13c-41.542 12.755-85.818 9.611-85.818 9.611.381 6.316 1.306 12.44 3.891 15.817z" mask="url(#tchd348sdp)"/>
                    </g>
                    <path fill="url(#y4mvtv5xdr)" fill-rule="nonzero" d="M298.598 239.11c-1.19 2.408-3.637 3.488-5.475 2.558l-1.46-.78c-1.73-.93-2.19-3.61-1-6.003l27.74-52.996c1.189-2.407 3.635-3.487 5.474-2.557l1.46.78c1.73.93 2.19 3.61 1 6.003l-27.74 52.996z" transform="translate(-924 -159) translate(0 64) translate(934 103)"/>
                    <path fill="#191919" fill-rule="nonzero" d="M284.362 264.694c-.71 1.41-2.798 1.687-4.621.789l-1.504-.789c-1.782-.94-2.729-2.861-1.977-4.271l13.378-25.117c.71-1.41 2.799-1.687 4.622-.789l1.504.789c1.782.94 2.728 2.861 1.976 4.271l-13.378 25.117z" transform="translate(-924 -159) translate(0 64) translate(934 103)"/>
                    <path fill="#F6D2A2" fill-rule="nonzero" d="M290.764 251.167c.917-2.488-.92-5.475-4.104-6.672s-6.507-.15-7.424 2.338c-.917 2.489.92 5.476 4.104 6.672 3.183 1.196 6.507.15 7.424-2.338z" transform="translate(-924 -159) translate(0 64) translate(934 103)"/>
                    <path fill="url(#rd6syrk3ds)" fill-rule="nonzero" d="M94.234 239.954c1.166 2.4 3.539 3.669 5.405 2.741l1.483-.695c1.865-.846 2.414-3.518 1.316-5.917l-25.671-54.038c-1.167-2.4-3.54-3.668-5.406-2.74l-1.482.695c-1.866.846-2.415 3.518-1.317 5.918l25.672 54.036z" transform="translate(-924 -159) translate(0 64) translate(934 103)"/>
                    <path fill="#191919" fill-rule="nonzero" d="M106.46 266.567c.713 1.391 2.743 1.855 4.647 1.01l1.511-.697c1.904-.846 2.814-2.674 2.184-4.066l-12.261-25.38c-.714-1.392-2.744-1.856-4.648-1.01l-1.511.695c-1.904.846-2.814 2.675-2.184 4.067l12.261 25.38z" transform="translate(-924 -159) translate(0 64) translate(934 103)"/>
                    <path fill="#F6D2A2" fill-rule="nonzero" d="M110.66 254.505c3.184-1.196 5.021-4.183 4.104-6.672-.917-2.488-4.241-3.535-7.424-2.338-3.184 1.197-5.021 4.184-4.104 6.672.917 2.488 4.241 3.534 7.424 2.338z" transform="translate(-924 -159) translate(0 64) translate(934 103)"/>
                    <path fill="url(#2tudhv204t)" fill-rule="nonzero" d="M117.666 173.651c-1.204 2.234-4.077 3.047-6.444 1.682l-2.682-1.489c-2.285-1.323-3.216-4.177-2.012-6.328l27.927-51.167c1.204-2.234 4.077-3.047 6.444-1.682l2.682 1.489c2.285 1.323 2.941 3.709 2.01 6.329-9.768 28.375-27.925 51.166-27.925 51.166z" transform="translate(-924 -159) translate(0 64) translate(934 103)"/>
                    <path fill="url(#1s3fuzk18u)" fill-rule="nonzero" d="M125.15 144.068c8.387-15.438 13.964-28.707 12.661-30.14v-.082s-.081 0-.081-.082c-12.96-7.084-30.356-.081-39 15.63-8.616 15.712-5.116 34.276 7.694 41.524l.082.082v-.082c1.994.314 10.15-11.52 18.645-26.85z" transform="translate(-924 -159) translate(0 64) translate(934 103)"/>
                    <path fill="url(#l7k7mpdd4v)" fill-rule="nonzero" d="M271.117 172.6c1.175 2.208 4.04 3.053 6.433 1.854l2.712-1.39c2.435-1.199 3.418-3.978 2.242-6.254l-26.76-51.41c-1.175-2.208-4.04-3.053-6.433-1.853l-2.712 1.39c-2.435 1.198-3.1 3.596-2.242 6.254 9.105 28.437 26.76 51.41 26.76 51.41z" transform="translate(-924 -159) translate(0 64) translate(934 103)"/>
                    <path fill="url(#2wlsm6pgrw)" fill-rule="nonzero" d="M263.979 143.356c-8.004-15.731-13.118-29.25-11.761-30.735v-.082s.08 0 .08-.083c13.119-6.731 30.347.852 38.486 16.9 8.153 16.089 4.11 34.582-8.926 41.562l-.082.082v-.082c-1.994.33-9.767-11.789-17.797-27.562z" transform="translate(-924 -159) translate(0 64) translate(934 103)"/>
                    <path fill="#353635" fill-rule="nonzero" d="M290 137s-10.097-24.586-21.714-37.622c-11.617-13.036-125.666-17.482-144.462 0C105.028 116.861 98 137 98 137v-5.424s8.617-23.994 25.824-37.622 129.707-12.912 144.147 0c14.563 12.913 21.947 37.622 21.947 37.622V137H290z" transform="translate(-924 -159) translate(0 64) translate(934 103)"/>
                    <path fill="url(#wp4q4o7v0x)" fill-rule="nonzero" d="M294.797 138.817c1.896-.965 1.508-5.47-.865-10.064-2.373-4.593-5.834-7.535-7.729-6.57-1.896.965-1.509 5.47.864 10.064 2.374 4.593 5.834 7.534 7.73 6.57zM102.786 132.367c2.435-4.579 2.94-9.127 1.124-10.158-1.814-1.03-5.26 1.845-7.696 6.424-2.435 4.579-2.939 9.126-1.125 10.158 1.815 1.03 5.26-1.846 7.697-6.424z" transform="translate(-924 -159) translate(0 64) translate(934 103)"/>
                    <path fill="#FFF" fill-rule="nonzero" d="M196.051 153.656c5.15 30.685 54.285 22.602 47.264-8.36-6.344-27.735-48.998-20.04-47.264 8.36zM137.559 158.07c6.74 26.72 49.022 19.853 47.395-6.908-1.914-32.134-53.875-25.945-47.395 6.908z" transform="translate(-924 -159) translate(0 64) translate(934 103)"/>
                    <path fill="#000" fill-rule="nonzero" d="M149 146c3.836 0 7 3.391 7 7.5 0 4.15-3.15 7.5-7 7.5-3.835 0-7-3.391-7-7.5s3.165-7.5 7-7.5z" transform="translate(-924 -159) translate(0 64) translate(934 103)"/>
                    <path fill="#FFF" fill-rule="nonzero" d="M151.5 154c.836 0 1.5.873 1.5 2s-.7 2-1.5 2c-.799 0-1.5-.873-1.5-2 0-1.07.664-2 1.5-2z" transform="translate(-924 -159) translate(0 64) translate(934 103)"/>
                    <path fill="#000" fill-rule="nonzero" d="M209 144c3.862 0 7 3.39 7 7.5 0 4.149-3.138 7.5-7 7.5s-7-3.391-7-7.5c-.041-4.149 3.084-7.5 7-7.5z" transform="translate(-924 -159) translate(0 64) translate(934 103)"/>
                    <path fill="#FFF" fill-rule="nonzero" d="M211.5 152c.836 0 1.5.873 1.5 2s-.664 2-1.5 2-1.5-.873-1.5-2c0-1.042.664-2 1.5-2zM151.5 154c-.836 0-1.5.873-1.5 2s.7 2 1.5 2c.799 0 1.499-.873 1.499-2 .037-1.07-.664-2-1.5-2z" transform="translate(-924 -159) translate(0 64) translate(934 103)"/>
                    <path fill="#FFF" fill-rule="nonzero" d="M211.5 152c-.836 0-1.5.873-1.5 2s.664 2 1.5 2 1.5-.873 1.5-2c0-1.042-.701-2-1.5-2z" transform="translate(-924 -159) translate(0 64) translate(934 103)"/>
                    <path fill="#E99C36" fill-opacity=".387" d="M276.908 355.843c-17.977 5.64-34.873 8.673-52.234 3.499-7.519-2.264-13.985-6.422-17.28-15.328 24.019.466 48.243-6.257 69.514 11.83zm-92.795-12.927c-1.244 5.558-4.538 9.565-9.063 11.362-6.78 2.759-14.026 5.023-21.271 6.107-11.019 1.55-27.369-1.44-37.99-5.805 6.63-7.588 15.037-11.087 24.182-11.513 14.574-.7 29.174-.15 44.142-.15zm133.985-10.882c-20.89 15.246-54.792 20.035-64.867 1.633 4.101-.753 8.179-1.757 12.247-2.798l2.568-.66c16.474-4.243 32.84-8.36 50.052 1.825zm-220.136-6.82c13.561 1.798 26.972 4.872 41.545 7.589-5.933 8.522-13.097 11.513-21.12 12.213-16.282 1.4-30.61-4.474-44.84-12.913 7.56-5.873 15.926-7.973 24.415-6.888zm147.874-25.207c3.376 8.906 2.323 16.535-3.213 23.342-7.943 9.756-19.098 14.312-30.813 17.934-1.327.357-2.638.632-4.265.975-.698-6.107 1.627-11.362 5.235-15.561 4.457-5.256 9.61-10.113 14.955-14.395 5.538-4.473 11.703-8.055 18.1-12.295zm-99.986-.384c24.155 12.61 39.644 27.622 38.209 41.386-11.552-2.882-21.969-7.04-30.813-14.628-8.722-7.506-11.388-17.345-7.396-26.758zm128.379-13.832c6.315 5.557 7.792 15.478 3.445 24.274-5.414 10.607-14.56 17.18-25.605 23.218-2.857-16.707 4.85-27.636 13.714-37.859l.702-.805c.234-.269.47-.536.705-.804l.709-.801.71-.8.71-.8c.12-.133.238-.266.356-.4l.71-.8.708-.8c1.06-1.2 2.11-2.405 3.136-3.623zm-156.855-.714c1.162 1.361 2.353 2.707 3.552 4.048l.72.804 1.442 1.606.72.803c9.823 10.985 19.056 22.2 16.163 39.45-22.05-4.9-35.146-31.85-22.597-46.711zm233.081 16c-18.482 19.952-45.14 28.09-59.644 14.546 14.655-13.818 45.468-21.435 59.644-14.546zM65.44 297.715c5.072 1.318 10.075 3.225 14.805 5.406 7.095 3.225 14.026 6.889 21.504 10.54-8.257 7.588-17.471 8.52-27.054 6.421-13.233-2.757-23.773-10.429-33.738-20.226 8.257-4.09 16.39-4.199 24.483-2.14zm231.496-33.441c15.461 11.087 11.975 33.798-7.861 49.95-8.76-17.688-1.297-32.053 6.179-46.649l.482-.942c.402-.785.802-1.571 1.2-2.36zm-202.5-1.18c13.014 19.719 15.925 37.612 8.024 49.208-18.988-12.913-23.062-36.762-8.024-49.208zm278.767.563c-8.872 18.044-33.37 37.53-52.932 25.523 11.934-17.084 38.523-29.929 52.932-25.523zm-301.365 24.11c-20.04 12.295-44.442-7.507-53.246-25.36 15.037-5.337 33.766 6.258 53.246 25.36zm241.105-49.126c17.321 6.298 19.96 31.589 5.155 49.4-11.656-12.91-10.319-26.943-7.113-41.221l.232-1.02c.117-.51.237-1.021.358-1.532l.244-1.022c.286-1.193.58-2.387.873-3.581l.251-1.024zm-234.94-1.222c7.628 18.635 7.095 39.37-4.538 48.975-12.632-16.343-14.108-39.904 4.538-48.975zm308.911-14.765c-4.1 23.96-28.051 42.443-45.454 35.13 9.542-20.584 30.267-36.653 45.454-35.13zM4.54 220.733c21.62 1.038 31.675 15.913 42.425 30.143l.726.958c1.09 1.436 2.191 2.861 3.314 4.262-17.142 8.013-39.616-9.057-46.465-35.363zm317.864-10.127c19.098 2.402 25.769 25.578 16.815 46.71-15.921-11.26-16.876-27.225-16.832-43.575l.004-1.045.003-.522.007-1.045.003-.523zm-252.998-1.73c.15 17.936.082 35.13-16.473 46.945-8.257-14.97-5.96-41.962 16.473-46.944zm321.583-29.2c.465 18.237-13.096 47.726-36.308 43.527 4.839-21.983 21.27-41.702 36.308-43.526zm-38.441 43.595c-18.17-7.494-22.86-22.833-26.39-38.985l-.223-1.032c-.149-.688-.295-1.378-.441-2.069 17.252-2.757 29.884 16.646 27.054 42.086zM0 178.496c15.653 1.317 27.942 16.535 37.361 43.678-10.499 1.4-18.632-2.759-25.03-10.47C4.607 202.154 1.736 190.79 0 178.496zm65.604 1.057c.342 17.962-11.62 37.38-26.356 42.086-2.871-24.577 8.257-42.238 26.356-42.086zm320.08-43.02c4.922 24.193-5.277 49.716-26.74 50.567 4.607-19.403 5.62-39.987 26.74-50.566zm-28.052 50.485c-14.258-1.249-27.668-13.53-35.146-35.83 16.965-4.542 33.437 12.145 35.146 35.83zM69.555 149.707c-6.548 20.734-20.888 35.197-35.146 35.828 0-21.9 16.855-39.287 35.146-35.828zm-64.128-14.82c17.891 8.99 21.81 24.449 25.12 40.209l.242 1.154.36 1.73c.522 2.502 1.048 5 1.633 7.473-9.966.384-19.03-6.106-23.595-16.686-4.58-10.539-4.771-21.544-3.76-33.88zm349.253 16.315c-20.133.527-30.928-12.503-41.4-26.148l-1.307-1.708c15.188-8.796 37.21 5.64 42.707 27.856zm16.199-55.369c10.307 22.258 6.001 50.43-14.955 54.697.044-1.57.057-3.146.055-4.723l-.004-1.183c-.102-17.744-1.767-35.552 14.904-48.79zm-290.784 26.03c-.773 1.019-1.545 2.034-2.32 3.042l-.665.861c-10.094 13.035-20.773 24.543-39.557 24.256 5.153-22.71 25.919-36.09 42.542-28.158zM20.11 94.79c13.247 7.822 18.25 26.058 15.38 54.217-8.558-.851-16.747-9.455-18.948-19.952-2.392-11.664-.383-22.875 3.568-34.265zM343.47 115.8c-11.647 5.722-32.152-2.1-48.16-18.594 16.199-10.113 37.894-1.592 48.16 18.594zM96.145 95.874c-11.975 15.095-34.149 23.932-48.092 19.019 11.319-20.734 33.055-29.214 48.092-19.02zm250.702-37.338c16.815 22.6 16.05 49.317-1.941 57.057-.574-2.892-1.27-5.778-1.989-8.658l-.288-1.152-.577-2.302-.43-1.724c-3.587-14.558-6.193-28.965 5.225-43.221zm-301.98-1.359c12.03 14.996 8.61 30.167 4.758 45.577l-.29 1.157c-.869 3.47-1.74 6.952-2.444 10.447C36.268 109.61 31.046 98.564 33.014 85.5c1.586-10.196 5.537-19.335 11.852-28.323zm280.408 27.5c-18.902 8.152-34.592.493-50.441-7.5l-1.012-.51-.506-.255-1.013-.51-.507-.254c13.562-13.366 37.115-9.441 53.479 9.028zm-205.26-10.278l-1.524.764-1.014.511c-16.053 8.082-31.838 15.993-50.942 7.754 16.39-18.47 39.986-22.408 53.48-9.03zm193.558-47.164c10.5 9.84 19.098 20.35 21.435 34.663 1.313 8.123-1.708 15.794-8.092 21.2-14.355-15.492-21.066-42.648-13.343-55.863zm-235.186-1.33c4.375 7.19 4.539 14.394 2.94 21.708-1.942 9.139-10.076 26.223-16.009 34.196-7.71-5.091-10.772-15.644-7.245-26.608 3.623-11.76 11.06-20.816 20.314-29.297zm220.217 31.231c-15.374 10.718-30.965 8.011-46.632 4.31l-1.133-.269c-1.321-.316-2.643-.636-3.966-.954l-1.134-.272-.567-.135-1.134-.268-1.134-.264-.567-.13c8.42-15.932 35.543-16.989 56.267-2.018zm-148.83.659c-1.147.268-2.292.544-3.436.824l-1.716.42-1.143.281-2.283.56-1.14.276c-.76.183-1.52.363-2.28.54l-1.138.262c-14.602 3.322-29.019 4.964-43.282-4.947 16.118-12.062 44.443-17.002 56.418 1.784zM269.39 2.768c13.178 6.958 23.595 14.628 30.608 26.141 5.618 9.222 5.304 19.02-.93 27.074-1.79-2.216-3.696-4.359-5.646-6.473l-.839-.905c-.42-.451-.842-.902-1.265-1.352l-.847-.9c-.988-1.05-1.978-2.098-2.961-3.15l-.84-.905c-9.782-10.563-18.582-21.778-17.28-39.53zM121.448 2c2.68 6.189 1.627 12.062-1.08 17.002-4.074 7.355-9.063 14.23-14.176 20.885-4.129 5.187-8.927 9.702-13.848 15.026-5.851-9.03-5.851-17.427-1.313-25.757C97.811 16.628 108.94 8.738 121.448 2zm161.27 42.265c-16.938 5.406-46.848-9.14-57.935-28.474 21.271-3.033 47.86 10.196 57.935 28.474zM167.586 13.609c-7.423 15.053-33.547 33.03-57.771 29.091 9.57-18.442 35.53-31.465 57.77-29.09z" filter="url(#r68q67hn6y)" transform="translate(-924 -159) translate(0 64) translate(934 103)"/>
                    <g transform="translate(-924 -159) translate(0 64) translate(934 103)">
                        <use fill="#000" filter="url(#k8v5qefdtz)" xlink:href="#ja88j315iA"/>
                        <use fill="url(#1m0n7tdv9B)" xlink:href="#ja88j315iA"/>
                        <use fill="#000" filter="url(#vq0fzmrulC)" xlink:href="#ja88j315iA"/>
                    </g>
                    <path fill="url(#wb8zytp2lD)" fill-rule="nonzero" d="M183.868 173.746c-6.063.497-11.012 7.834-7.919 13.554 4.207 7.709 13.612-.746 19.428.124 6.682.124 12.25 7.087 17.571 1.244 6.063-6.59-2.599-12.933-9.28-15.668l-19.8.746z" transform="translate(-924 -159) translate(0 64) translate(934 103)"/>
                    <path fill="#010101" fill-rule="nonzero" d="M183.392 174.048c-.504-10.715 20.044-12.102 22.44-3.151 2.395 9.076-21.557 11.093-22.44 3.15 0 0-.882-6.428 0 0z" transform="translate(-924 -159) translate(0 64) translate(934 103)"/>
                </g>
            </g>
        </g>
    </g>
</svg>
